<?xml version="1.0" encoding="UTF-8"?>
<svg width="90px" height="90px" viewBox="0 0 90 90" version="1.1" xmlns="http://www.w3.org/2000/svg" xmlns:xlink="http://www.w3.org/1999/xlink">
    <!-- Generator: Sketch 40.2 (33826) - http://www.bohemiancoding.com/sketch -->
    <title>Group</title>
    <desc>Created with Sketch.</desc>
    <defs></defs>
    <g id="Page-1" stroke="none" stroke-width="1" fill="none" fill-rule="evenodd">
        <g id="noun_740119_cc" transform="translate(-5.000000, -1.000000)" fill="#000000">
            <g id="Group" transform="translate(5.000000, 0.637820)">
                <path d="M19.312502,0.95593 C18.8646188,1.0043532 18.4461966,1.20255319 18.125002,1.51843 L1.156202,18.48718 C0.776469885,18.8628847 0.56279677,19.3748729 0.56279677,19.909055 C0.56279677,20.4432371 0.776469885,20.9552253 1.156202,21.33093 L25.187502,45.3621 L1.156202,69.3934 C0.776485322,69.7691028 0.562822037,70.2810802 0.562822037,70.81525 C0.562822037,71.3494198 0.776485322,71.8613972 1.156202,72.2371 L18.125002,89.2059 C18.9042386,89.9762816 20.1582654,89.9762816 20.937502,89.2059 L45.000002,65.1434 L69.062502,89.2059 C69.8417386,89.9762816 71.0957654,89.9762816 71.875002,89.2059 L88.843798,72.2371 C89.2235147,71.8613972 89.437178,71.3494198 89.437178,70.81525 C89.437178,70.2810802 89.2235147,69.7691028 88.843798,69.3934 L64.812502,45.3621 L88.843798,21.33093 C89.2235301,20.9552253 89.4372032,20.4432371 89.4372032,19.909055 C89.4372032,19.3748729 89.2235301,18.8628847 88.843798,18.48718 L71.875002,1.51843 C71.0957654,0.748048381 69.8417386,0.748048381 69.062502,1.51843 L45.000002,25.58093 L20.937502,1.51843 C20.5081873,1.09577687 19.911239,0.889140923 19.312502,0.95593 L19.312502,0.95593 Z M19.531202,5.76843 L43.593802,29.83094 C44.3730267,30.6012557 45.6269773,30.6012557 46.406202,29.83094 L70.468802,5.76843 L84.593802,19.89343 L60.562502,43.9246 C60.1827544,44.3003066 59.9690715,44.8123056 59.9690715,45.3465 C59.9690715,45.8806944 60.1827544,46.3926934 60.562502,46.7684 L84.625002,70.7996 L70.468802,84.9559 L46.406202,60.8934 C45.6269773,60.1230843 44.3730267,60.1230843 43.593802,60.8934 L19.531202,84.9559 L5.375002,70.7996 L29.437502,46.7684 C29.8172496,46.3926934 30.0309325,45.8806944 30.0309325,45.3465 C30.0309325,44.8123056 29.8172496,44.3003066 29.437502,43.9246 L5.406202,19.89343 L19.531202,5.76843 L19.531202,5.76843 Z" id="Shape"></path>
            </g>
        </g>
    </g>
</svg>