<svg id="Layer_1" data-name="Layer 1" xmlns="http://www.w3.org/2000/svg" viewBox="0 0 96.1 31.9"><title>noun_2277212_cc</title><path d="M23.25,11.2l-2.1-.1a14.28,14.28,0,0,0-1.7,6.1h1.9A12.84,12.84,0,0,1,23.25,11.2Z" transform="translate(-1.75 -2.7)"/><path d="M19.35,18.9A16.12,16.12,0,0,0,21,25.5a2.2,2.2,0,0,0-.8.1c-.5.1-1,.1-1.4.2a2.44,2.44,0,0,0-.7.1l.6.2c.4.1.9.1,1.4.2s.9.1,1.3.1a9.06,9.06,0,0,0,1.1,1.6H25a13.31,13.31,0,0,1-3.9-9h2a1.42,1.42,0,0,0,1-.5,1.55,1.55,0,0,0-1-.5h-3.9c-1.9,0-4.1,0-6.3.1-2.8.1-5.6.1-7.7.2s-3.5.2-3.5.2,1.4.1,3.5.2,4.9.1,7.7.2Z" transform="translate(-1.75 -2.7)"/><path d="M16.55,23.5h1.3c.3,0,.5-.5.5-.5a1.1,1.1,0,0,0-.5-.5h-1.3c-1,0-2.4,0-3.8.1s-2.8.1-3.8.2-1.8.2-1.8.2.7.1,1.7.2,2.4.1,3.8.2S15.45,23.4,16.55,23.5Z" transform="translate(-1.75 -2.7)"/><path d="M80.25,19.8h-1.9a13.67,13.67,0,0,1-1.9,6l2.1.1A13.9,13.9,0,0,0,80.25,19.8Z" transform="translate(-1.75 -2.7)"/><path d="M76.15,29.3a9,9,0,0,0,1.5-1.9c1.3-.1,2.6-.1,3.5-.2s1.7-.2,1.7-.2-.7-.1-1.7-.2-2.4-.1-3.8-.2-2.8-.1-3.8-.1h-1.3c-.3,0-.5.5-.5.5a1.1,1.1,0,0,0,.5.5h3.1a13.57,13.57,0,0,1-10.6,5.1,13.78,13.78,0,0,1-13.6-11.8l1.8,2.2.1.1h.1l2.8.2,2,1.5-1.7-2-.1-.1H56l-2.8-.2-2-2.6,5.1-.4,3.4,1.6h.2l2-.8-2,.2-3.4-1.6h-.2l-5.4.4h0l3.5-2.4h.1v-.1L56,13.7l3.9-1.3-4.1.8h-.1l-.1.1-1.5,3.2L51,18.7A13.7,13.7,0,0,1,64.75,5.1a13.19,13.19,0,0,1,7.8,2.5h-2a1.08,1.08,0,0,0-.8.4h0a1.08,1.08,0,0,0,.8.4H79c2.3-.1,4.6-.1,6.4-.2s2.9-.2,2.9-.2-1.2-.1-2.9-.2-4.1-.1-6.4-.2h-3.6A15.78,15.78,0,0,0,69.65,4c.6,0,1.2-.1,1.7-.1.8-.1,1.3-.2,1.3-.2s-.5-.1-1.3-.2-1.8-.1-2.8-.2a14.08,14.08,0,0,1-2.1-.1,9.7,9.7,0,0,0-1.7-.1A15.64,15.64,0,0,0,49.85,14a15.69,15.69,0,0,0-15-11.3,15.5,15.5,0,0,0-10.6,4.2l-15.4.5,14.6.4a9,9,0,0,0-1.5,1.9c-1.3.1-2.6.1-3.5.2s-1.7.2-1.7.2.7.1,1.7.2,2.4.1,3.8.2,2.8.1,3.8.1h1.3c.3,0,.5-.5.5-.5a1.1,1.1,0,0,0-.5-.5h-3.1a13.66,13.66,0,0,1,24.3,8.2L47.15,15v-.1H47l-2.9-1.1-2.9-2.4,2.6,2.9h.1l2.8,1.2,1.8,3.6v.2l-3.4.4-3-1.7-.1-.1h-.1l-3.4,1.2,3.5-.7,2.6,1.5-1.9.5h-.1l-.1.1L41.15,23l-2.2,1.2,2.5-.7h.1l.1-.1L43,21l3.4-.8h0l2.2-.2A13.73,13.73,0,0,1,35,32.1a13.5,13.5,0,0,1-7.9-2.5h2a1.08,1.08,0,0,0,.8-.4h0a1.08,1.08,0,0,0-.8-.4H27c-1.7,0-4.1.1-6.4.1s-4.6.1-6.4.2-2.9.2-2.9.2,1.2.1,2.9.2,4.1.1,6.4.2h3.5A14.27,14.27,0,0,0,30,33.3c-.6,0-1.2.1-1.7.1-.8.1-1.3.2-1.3.2s.5.1,1.3.2,1.8.1,2.8.2a14.08,14.08,0,0,1,2.1.1,9.7,9.7,0,0,0,1.7.1,15.64,15.64,0,0,0,14.9-10.9,15.69,15.69,0,0,0,15,11.3,15.5,15.5,0,0,0,10.6-4.2l15.4-.4Z" transform="translate(-1.75 -2.7)"/><path d="M94.35,18.5c-2.1-.1-4.9-.1-7.7-.2-2.2,0-4.5,0-6.3-.1a16.12,16.12,0,0,0-1.7-6.6,2.2,2.2,0,0,0,.8-.1c.5-.1,1-.1,1.4-.2a3.22,3.22,0,0,0,.6-.2l-.6-.2c-.4-.1-.9-.1-1.4-.2s-.9-.1-1.3-.1A9.06,9.06,0,0,0,77,9h-2.5a13.31,13.31,0,0,1,3.9,9h-2a1.42,1.42,0,0,0-1,.5,1.55,1.55,0,0,0,1,.5h3.9c1.9,0,4.1,0,6.3-.1,2.8-.1,5.6-.1,7.7-.2s3.5-.2,3.5-.2A33.36,33.36,0,0,1,94.35,18.5Z" transform="translate(-1.75 -2.7)"/><path d="M83.15,13.6h-1.3c-.3,0-.5.5-.5.5a1.1,1.1,0,0,0,.5.5h1.3c1,0,2.4,0,3.8-.1s2.8-.1,3.8-.2,1.7-.2,1.7-.2-.7-.1-1.7-.2-2.4-.1-3.8-.2S84.15,13.7,83.15,13.6Z" transform="translate(-1.75 -2.7)"/><polygon points="45.5 19.1 43 19.9 42.9 19.9 42.9 19.9 41.4 22.1 43.2 20.4 45.5 19.1"/><polygon points="53.2 9 53.1 9 51.6 11.1 53.4 9.3 55.7 8.1 53.2 9"/></svg>