<?xml version="1.0" encoding="UTF-8"?>
<svg width="90px" height="80px" viewBox="0 0 90 80" version="1.1" xmlns="http://www.w3.org/2000/svg" xmlns:xlink="http://www.w3.org/1999/xlink">
    <!-- Generator: Sketch 40.2 (33826) - http://www.bohemiancoding.com/sketch -->
    <title>Shape</title>
    <desc>Created with Sketch.</desc>
    <defs></defs>
    <g id="Page-1" stroke="none" stroke-width="1" fill="none" fill-rule="evenodd">
        <g id="noun_716777_cc" transform="translate(-5.000000, 0.000000)" fill="#000000">
            <path d="M54.235,79.926 C53.977,79.926 53.717,79.876 53.47,79.774 C52.722,79.464 52.235,78.735 52.235,77.926 L52.235,2.074 C52.235,1.265 52.722,0.536 53.47,0.226 C54.217,-0.084 55.077,0.087 55.649,0.66 L93.575,38.586 C93.95,38.961 94.161,39.47 94.161,40 C94.161,40.53 93.95,41.039 93.575,41.414 L55.65,79.34 C55.268,79.723 54.756,79.926 54.235,79.926 L54.235,79.926 Z M56.236,6.902 L56.236,73.097 L89.333,40 L56.236,6.902 L56.236,6.902 Z M7.837,79.926 C7.579,79.926 7.319,79.876 7.072,79.774 C6.324,79.464 5.837,78.735 5.837,77.926 L5.837,2.074 C5.837,1.265 6.324,0.536 7.072,0.226 C7.819,-0.084 8.68,0.087 9.251,0.66 L47.177,38.586 C47.552,38.961 47.763,39.47 47.763,40 C47.763,40.53 47.552,41.039 47.177,41.414 L9.252,79.34 C8.87,79.723 8.358,79.926 7.837,79.926 L7.837,79.926 Z M9.838,6.902 L9.838,73.097 L42.936,40 L9.838,6.902 L9.838,6.902 Z" id="Shape"></path>
        </g>
    </g>
</svg>