<?xml version="1.0" encoding="UTF-8"?>
<svg width="68px" height="88px" viewBox="0 0 68 88" version="1.1" xmlns="http://www.w3.org/2000/svg" xmlns:xlink="http://www.w3.org/1999/xlink">
    <!-- Generator: Sketch 40.2 (33826) - http://www.bohemiancoding.com/sketch -->
    <title>Shape</title>
    <desc>Created with Sketch.</desc>
    <defs></defs>
    <g id="Page-1" stroke="none" stroke-width="1" fill="none" fill-rule="evenodd">
        <g id="noun_716785_cc" transform="translate(-16.000000, 0.000000)" fill="#ffffff">
            <path d="M81.667,87.159 L59.989,87.159 C58.885,87.159 57.989,86.263 57.989,85.159 L57.989,2.841 C57.989,1.737 58.885,0.841 59.989,0.841 L81.667,0.841 C82.771,0.841 83.667,1.737 83.667,2.841 L83.667,85.159 C83.667,86.264 82.771,87.159 81.667,87.159 L81.667,87.159 Z M61.989,83.159 L79.667,83.159 L79.667,4.841 L61.989,4.841 L61.989,83.159 L61.989,83.159 Z M40.011,87.159 L18.333,87.159 C17.229,87.159 16.333,86.263 16.333,85.159 L16.333,2.841 C16.333,1.737 17.229,0.841 18.333,0.841 L40.011,0.841 C41.115,0.841 42.011,1.737 42.011,2.841 L42.011,85.159 C42.011,86.264 41.115,87.159 40.011,87.159 L40.011,87.159 Z M20.333,83.159 L38.011,83.159 L38.011,4.841 L20.333,4.841 L20.333,83.159 L20.333,83.159 Z" id="Shape"></path>
        </g>
    </g>
</svg>
