<?xml version="1.0" encoding="UTF-8"?>
<svg width="66px" height="88px" viewBox="0 0 66 88" version="1.1" xmlns="http://www.w3.org/2000/svg" xmlns:xlink="http://www.w3.org/1999/xlink">
    <!-- Generator: Sketch 40.2 (33826) - http://www.bohemiancoding.com/sketch -->
    <title>Shape</title>
    <desc>Created with Sketch.</desc>
    <defs></defs>
    <g id="Page-1" stroke="none" stroke-width="1" fill="none" fill-rule="evenodd">
        <g id="noun_716779_cc" transform="translate(-17.000000, 0.000000)" fill="#000000">
            <path d="M19.347,87.306 C19.025,87.306 18.702,87.228 18.408,87.072 C17.756,86.725 17.347,86.046 17.347,85.306 L17.347,2.694 C17.347,1.955 17.755,1.276 18.408,0.928 C19.061,0.582 19.852,0.622 20.465,1.035 L81.772,42.341 C82.324,42.713 82.655,43.335 82.655,44 C82.655,44.665 82.324,45.287 81.772,45.659 L20.464,86.964 C20.128,87.191 19.738,87.306 19.347,87.306 L19.347,87.306 Z M21.347,6.454 L21.347,81.547 L77.074,44 L21.347,6.454 L21.347,6.454 Z" id="Shape"></path>
        </g>
    </g>
</svg>