<?xml version="1.0" encoding="UTF-8"?>
<svg width="90px" height="80px" viewBox="0 0 90 80" version="1.1" xmlns="http://www.w3.org/2000/svg" xmlns:xlink="http://www.w3.org/1999/xlink">
    <!-- Generator: Sketch 40.2 (33826) - http://www.bohemiancoding.com/sketch -->
    <title>Shape</title>
    <desc>Created with Sketch.</desc>
    <defs></defs>
    <g id="Page-1" stroke="none" stroke-width="1" fill="none" fill-rule="evenodd">
        <g id="noun_716776_cc" transform="translate(-5.000000, 0.000000)" fill="#000000">
            <path d="M92.163,79.926 C91.642,79.926 91.131,79.723 90.748,79.34 L52.822,41.414 C52.447,41.039 52.236,40.53 52.236,40 C52.236,39.47 52.447,38.961 52.822,38.586 L90.748,0.66 C91.319,0.088 92.181,-0.084 92.927,0.226 C93.675,0.536 94.162,1.265 94.162,2.074 L94.162,77.926 C94.162,78.735 93.675,79.464 92.927,79.774 C92.68,79.876 92.42,79.926 92.163,79.926 L92.163,79.926 Z M57.064,40 L90.162,73.098 L90.162,6.902 L57.064,40 L57.064,40 Z M45.765,79.926 C45.244,79.926 44.733,79.723 44.35,79.34 L6.424,41.414 C6.049,41.039 5.838,40.53 5.838,40 C5.838,39.47 6.049,38.961 6.424,38.586 L44.35,0.66 C44.921,0.088 45.783,-0.084 46.529,0.226 C47.277,0.536 47.764,1.265 47.764,2.074 L47.764,77.926 C47.764,78.735 47.277,79.464 46.529,79.774 C46.282,79.876 46.022,79.926 45.765,79.926 L45.765,79.926 Z M10.667,40 L43.765,73.098 L43.765,6.902 L10.667,40 L10.667,40 Z" id="Shape"></path>
        </g>
    </g>
</svg>